<mxfile host="app.diagrams.net" modified="2023-07-18T14:29:02.628Z" agent="Mozilla/5.0 (Macintosh; Intel Mac OS X 10_15_7) AppleWebKit/605.1.15 (KHTML, like Gecko) Version/16.5.2 Safari/605.1.15" etag="sr0Uui0FR0m6vnKNYAtM" version="21.6.2" type="device">
  <diagram name="Page-1" id="9IfyPESq1i1AfVeQXyyn">
    <mxGraphModel dx="1183" dy="696" grid="1" gridSize="10" guides="1" tooltips="1" connect="1" arrows="1" fold="1" page="1" pageScale="1" pageWidth="850" pageHeight="1100" math="0" shadow="0">
      <root>
        <mxCell id="0" />
        <mxCell id="1" parent="0" />
        <mxCell id="k32nOSxN6quwrwLho5lX-1" value="" style="rounded=1;whiteSpace=wrap;html=1;fillColor=#f5f5f5;fontColor=#333333;strokeColor=#666666;" vertex="1" parent="1">
          <mxGeometry x="40" y="80" width="340" height="80" as="geometry" />
        </mxCell>
        <mxCell id="k32nOSxN6quwrwLho5lX-2" value="&lt;font style=&quot;font-size: 10px;&quot;&gt;&lt;b&gt;Packet Classifiesr&lt;/b&gt;&lt;/font&gt;" style="rounded=1;whiteSpace=wrap;html=1;" vertex="1" parent="1">
          <mxGeometry x="50" y="105" width="80" height="30" as="geometry" />
        </mxCell>
        <mxCell id="k32nOSxN6quwrwLho5lX-3" value="&lt;b&gt;&lt;font style=&quot;font-size: 10px;&quot;&gt;L3 Routing&lt;/font&gt;&lt;/b&gt;" style="rounded=1;whiteSpace=wrap;html=1;" vertex="1" parent="1">
          <mxGeometry x="170" y="85" width="80" height="30" as="geometry" />
        </mxCell>
        <mxCell id="k32nOSxN6quwrwLho5lX-4" value="&lt;b&gt;&lt;font style=&quot;font-size: 10px;&quot;&gt;L2 Forwarding&lt;/font&gt;&lt;/b&gt;" style="rounded=1;whiteSpace=wrap;html=1;" vertex="1" parent="1">
          <mxGeometry x="170" y="125" width="80" height="30" as="geometry" />
        </mxCell>
        <mxCell id="k32nOSxN6quwrwLho5lX-5" value="&lt;b&gt;&lt;font style=&quot;font-size: 10px;&quot;&gt;Access Control List&lt;/font&gt;&lt;/b&gt;" style="rounded=1;whiteSpace=wrap;html=1;" vertex="1" parent="1">
          <mxGeometry x="290" y="105" width="80" height="30" as="geometry" />
        </mxCell>
        <mxCell id="k32nOSxN6quwrwLho5lX-8" value="" style="endArrow=classic;html=1;rounded=0;entryX=0;entryY=0.5;entryDx=0;entryDy=0;fontSize=16;strokeWidth=2;" edge="1" parent="1" target="k32nOSxN6quwrwLho5lX-3">
          <mxGeometry width="50" height="50" relative="1" as="geometry">
            <mxPoint x="130" y="115" as="sourcePoint" />
            <mxPoint x="180" y="65" as="targetPoint" />
          </mxGeometry>
        </mxCell>
        <mxCell id="k32nOSxN6quwrwLho5lX-10" value="" style="endArrow=classic;html=1;rounded=0;entryX=0;entryY=0.5;entryDx=0;entryDy=0;fontSize=16;strokeWidth=2;" edge="1" parent="1" target="k32nOSxN6quwrwLho5lX-4">
          <mxGeometry width="50" height="50" relative="1" as="geometry">
            <mxPoint x="130" y="127.5" as="sourcePoint" />
            <mxPoint x="170" y="112.5" as="targetPoint" />
          </mxGeometry>
        </mxCell>
        <mxCell id="k32nOSxN6quwrwLho5lX-11" value="" style="endArrow=classic;html=1;rounded=0;entryX=0;entryY=0.5;entryDx=0;entryDy=0;fontSize=16;strokeWidth=2;" edge="1" parent="1">
          <mxGeometry width="50" height="50" relative="1" as="geometry">
            <mxPoint x="250" y="102.5" as="sourcePoint" />
            <mxPoint x="290" y="115" as="targetPoint" />
          </mxGeometry>
        </mxCell>
        <mxCell id="k32nOSxN6quwrwLho5lX-12" value="" style="endArrow=classic;html=1;rounded=0;entryX=0;entryY=0.5;entryDx=0;entryDy=0;fontSize=16;strokeWidth=2;" edge="1" parent="1">
          <mxGeometry width="50" height="50" relative="1" as="geometry">
            <mxPoint x="250" y="140" as="sourcePoint" />
            <mxPoint x="290" y="125" as="targetPoint" />
          </mxGeometry>
        </mxCell>
        <mxCell id="k32nOSxN6quwrwLho5lX-13" value="&lt;b&gt;P4 Program&lt;/b&gt;" style="text;html=1;strokeColor=none;fillColor=none;align=center;verticalAlign=middle;whiteSpace=wrap;rounded=0;" vertex="1" parent="1">
          <mxGeometry x="155" y="50" width="110" height="30" as="geometry" />
        </mxCell>
        <mxCell id="k32nOSxN6quwrwLho5lX-14" value="" style="shape=flexArrow;endArrow=classic;html=1;rounded=0;fillColor=#bac8d3;strokeColor=#23445d;" edge="1" parent="1">
          <mxGeometry width="50" height="50" relative="1" as="geometry">
            <mxPoint x="95" y="165" as="sourcePoint" />
            <mxPoint x="95" y="215" as="targetPoint" />
          </mxGeometry>
        </mxCell>
        <mxCell id="k32nOSxN6quwrwLho5lX-16" value="" style="rounded=1;whiteSpace=wrap;html=1;strokeWidth=1;shadow=0;dashed=0;shape=mxgraph.ios7.misc.settings;fillColor=#8F8E94;strokeColor=none;strokeColor2=#222222;fontColor=#222222;fontSize=8;verticalLabelPosition=bottom;verticalAlign=top;sketch=0;" vertex="1" parent="1">
          <mxGeometry x="70" y="220" width="50" height="50" as="geometry" />
        </mxCell>
        <mxCell id="k32nOSxN6quwrwLho5lX-36" style="edgeStyle=orthogonalEdgeStyle;rounded=0;orthogonalLoop=1;jettySize=auto;html=1;exitX=1;exitY=0.5;exitDx=0;exitDy=0;entryX=0;entryY=0.5;entryDx=0;entryDy=0;" edge="1" parent="1" source="k32nOSxN6quwrwLho5lX-18" target="k32nOSxN6quwrwLho5lX-34">
          <mxGeometry relative="1" as="geometry" />
        </mxCell>
        <mxCell id="k32nOSxN6quwrwLho5lX-18" value="&lt;b&gt;&lt;font style=&quot;font-size: 11px;&quot;&gt;Target Runtime Control Plane&lt;/font&gt;&lt;/b&gt;" style="rounded=1;whiteSpace=wrap;html=1;fillColor=#f5f5f5;fontColor=#333333;strokeColor=#666666;" vertex="1" parent="1">
          <mxGeometry x="170" y="182.5" width="85" height="40" as="geometry" />
        </mxCell>
        <mxCell id="k32nOSxN6quwrwLho5lX-35" style="edgeStyle=orthogonalEdgeStyle;rounded=0;orthogonalLoop=1;jettySize=auto;html=1;exitX=1;exitY=0.5;exitDx=0;exitDy=0;entryX=0;entryY=0.5;entryDx=0;entryDy=0;" edge="1" parent="1" source="k32nOSxN6quwrwLho5lX-19" target="k32nOSxN6quwrwLho5lX-33">
          <mxGeometry relative="1" as="geometry" />
        </mxCell>
        <mxCell id="k32nOSxN6quwrwLho5lX-19" value="&lt;b&gt;&lt;font style=&quot;font-size: 11px;&quot;&gt;Target Data Plane Code&lt;/font&gt;&lt;/b&gt;" style="rounded=1;whiteSpace=wrap;html=1;fillColor=#f5f5f5;fontColor=#333333;strokeColor=#666666;" vertex="1" parent="1">
          <mxGeometry x="170" y="267.5" width="85" height="40" as="geometry" />
        </mxCell>
        <mxCell id="k32nOSxN6quwrwLho5lX-24" value="&lt;b&gt;P4 Compiler&lt;/b&gt;" style="text;html=1;strokeColor=none;fillColor=none;align=center;verticalAlign=middle;whiteSpace=wrap;rounded=0;" vertex="1" parent="1">
          <mxGeometry x="40" y="265" width="110" height="30" as="geometry" />
        </mxCell>
        <mxCell id="k32nOSxN6quwrwLho5lX-26" value="" style="endArrow=classic;html=1;rounded=0;entryX=0;entryY=0.5;entryDx=0;entryDy=0;fontSize=16;strokeWidth=2;" edge="1" parent="1" target="k32nOSxN6quwrwLho5lX-18">
          <mxGeometry width="50" height="50" relative="1" as="geometry">
            <mxPoint x="120" y="235" as="sourcePoint" />
            <mxPoint x="160" y="220" as="targetPoint" />
          </mxGeometry>
        </mxCell>
        <mxCell id="k32nOSxN6quwrwLho5lX-27" value="" style="endArrow=classic;html=1;rounded=0;entryX=0;entryY=0.5;entryDx=0;entryDy=0;fontSize=16;strokeWidth=2;" edge="1" parent="1" target="k32nOSxN6quwrwLho5lX-19">
          <mxGeometry width="50" height="50" relative="1" as="geometry">
            <mxPoint x="120" y="255" as="sourcePoint" />
            <mxPoint x="170" y="230" as="targetPoint" />
          </mxGeometry>
        </mxCell>
        <mxCell id="k32nOSxN6quwrwLho5lX-33" value="" style="image;html=1;image=img/lib/clip_art/networking/Router_Icon_128x128.png" vertex="1" parent="1">
          <mxGeometry x="315" y="260" width="45" height="55" as="geometry" />
        </mxCell>
        <mxCell id="k32nOSxN6quwrwLho5lX-34" value="" style="image;aspect=fixed;perimeter=ellipsePerimeter;html=1;align=center;shadow=0;dashed=0;spacingTop=3;image=img/lib/active_directory/generic_server.svg;" vertex="1" parent="1">
          <mxGeometry x="324" y="177" width="28.000000000000004" height="50" as="geometry" />
        </mxCell>
        <mxCell id="k32nOSxN6quwrwLho5lX-42" value="" style="endArrow=classic;startArrow=classic;html=1;rounded=0;" edge="1" parent="1">
          <mxGeometry width="50" height="50" relative="1" as="geometry">
            <mxPoint x="337" y="272.5" as="sourcePoint" />
            <mxPoint x="337" y="222.5" as="targetPoint" />
          </mxGeometry>
        </mxCell>
        <mxCell id="k32nOSxN6quwrwLho5lX-43" value="&lt;b&gt;Target APIs&lt;/b&gt;" style="text;html=1;strokeColor=none;fillColor=none;align=center;verticalAlign=middle;whiteSpace=wrap;rounded=0;" vertex="1" parent="1">
          <mxGeometry x="255" y="227" width="90" height="30" as="geometry" />
        </mxCell>
      </root>
    </mxGraphModel>
  </diagram>
</mxfile>
